#!OML:ASF X:\für Bonn\!DataBase\2005_08_12_Daniel\c3d\Daniel.ASF
:FULLY-SPECIFIED
:DEGREES
171
root -22.1086 16.8545 -21.1909 -186.418 -46.3759 179.711
lowerback 15.4534 -2.17301 2.91296
upperback 3.95119 -2.71649 0.638029
thorax -4.55056 -1.50278 -0.443907
lowerneck -7.69854 1.75779 -3.9809
upperneck -1.0419 2.57989 -1.24543
head 0.922666 1.22254 0.355367
rclavicle -2.98177e-014 -4.73108e-014
rhumerus -55.2034 10.2656 -93.9568
rradius 78.3707
rwrist -5.63338
rhand -21.205 20.7806
rfingers 7.12502
rthumb 5.17637 -9.13617
lclavicle -2.98177e-014 -4.73108e-014
lhumerus -64.398 -4.79401 97.9104
lradius 99.3915
lwrist 9.72814
lhand -9.26578 -8.25838
lfingers 7.12502
lthumb 16.6906 21.0441
rfemur -8.95557 -0.435612 27.6849
rtibia 46.2261
rfoot -29.6656 -1.62917
rtoes 1.28604
lfemur -9.92698 2.04943 -15.4586
ltibia 95.9208
lfoot 2.18105 -2.21326
ltoes -0.125074
172
root -22.3363 16.8901 -21.4261 -185.822 -46.5384 179.455
lowerback 15.2133 -1.94426 2.85941
upperback 3.79154 -2.41 0.589084
thorax -4.58074 -1.34416 -0.530009
lowerneck -7.74624 1.57025 -4.07507
upperneck -0.882003 2.34772 -1.21222
head 0.983835 1.10556 0.376858
rclavicle 8.30423e-014 -9.14409e-015
rhumerus -54.4198 10.0746 -94.4646
rradius 79.1713
rwrist -5.49645
rhand -21.8924 21.0288
rfingers 7.12502
rthumb 4.5127 -8.90315
lclavicle 8.30423e-014 -9.14409e-015
lhumerus -65.2591 -4.5153 98.0875
lradius 99.372
lwrist 9.6123
lhand -9.16939 -7.65494
lfingers 7.12502
lthumb 16.7834 21.6397
rfemur -7.59722 -0.377025 27.4989
rtibia 45.331
rfoot -29.8966 -1.45193
rtoes 1.839
lfemur -12.6984 1.83819 -15.9958
ltibia 96.6122
lfoot 2.33273 -2.36655
ltoes 0.42451
173
root -22.5645 16.9373 -21.6628 -185.206 -46.6808 178.96
lowerback 15.1416 -1.69737 2.62751
upperback 3.61756 -2.10545 0.46501
thorax -4.71382 -1.18627 -0.587143
lowerneck -7.7958 1.38641 -4.11742
upperneck -0.597313 2.12298 -1.19564
head 1.08616 0.990938 0.385637
rclavicle 4.64659e-014 -8.74653e-015
rhumerus -53.9276 9.9236 -95.0619
rradius 80.1096
rwrist -5.35259
rhand -22.4893 21.5291
rfingers 7.12502
rthumb 3.93629 -8.41431
lclavicle 4.64659e-014 -8.74653e-015
lhumerus -66.196 -4.39884 98.2523
lradius 99.6159
lwrist 9.74291
lhand -8.80877 -7.26191
lfingers 7.12502
lthumb 17.1305 22.0029
rfemur -6.06635 -0.37243 27.1463
rtibia 44.3305
rfoot -29.825 -1.47112
rtoes 1.69178
lfemur -15.1448 1.63092 -16.7738
ltibia 96.8877
lfoot 2.24216 -2.50466
ltoes 0.133198
174
root -22.793 16.9926 -21.9049 -184.479 -46.787 178.296
lowerback 15.0099 -1.43068 2.2317
upperback 3.45284 -1.80481 0.295189
thorax -4.8022 -1.02811 -0.601077
lowerneck -7.88811 1.19966 -4.2212
upperneck -0.272378 1.90202 -1.08734
head 1.20825 0.879393 0.433895
rclavicle -6.03808e-014 1.35174e-014
rhumerus -53.584 9.84983 -95.7227
rradius 81.1977
rwrist -5.20521
rhand -22.8187 22.1049
rfingers 7.12502
rthumb 3.61818 -7.84418
lclavicle -6.03808e-014 1.35174e-014
lhumerus -67.0142 -4.38292 98.3842
lradius 100.007
lwrist 10.1043
lhand -8.239 -7.14398
lfingers 7.12502
lthumb 17.6789 22.0723
rfemur -4.47168 -0.300123 26.6875
rtibia 43.2279
rfoot -29.5381 -1.51692
rtoes 1.19459
lfemur -17.4174 1.45306 -17.6832
ltibia 96.7887
lfoot 1.9074 -2.56524
ltoes -0.768326
175
root -23.0216 17.0555 -22.1504 -183.737 -46.8368 177.575
lowerback 14.8617 -1.14529 1.73159
upperback 3.29338 -1.4974 0.121155
thorax -4.87517 -0.865478 -0.561566
lowerneck -8.00729 1.03118 -4.3391
upperneck 0.111156 1.70958 -0.959468
head 1.35442 0.781633 0.492118
rclavicle 5.85421e-014 -1.59028e-015
rhumerus -53.3521 9.90005 -96.3933
rradius 82.3802
rwrist -5.16104
rhand -22.8014 22.682
rfingers 7.12502
rthumb 3.63484 -7.26672
lclavicle 5.85421e-014 -1.59028e-015
lhumerus -67.6928 -4.38157 98.4857
lradius 100.513
lwrist 10.6874
lhand -7.50376 -7.29208
lfingers 7.12502
lthumb 18.3863 21.859
rfemur -2.81168 -0.0854272 26.2231
rtibia 42.0026
rfoot -28.948 -1.63589
rtoes 0.640373
lfemur -19.5165 1.35109 -18.6021
ltibia 96.353
lfoot 1.44044 -2.50628
ltoes -1.67292
176
root -23.2516 17.1336 -22.3981 -183.039 -46.8177 176.898
lowerback 14.6971 -0.851468 1.21659
upperback 3.13602 -1.1817 -0.0419262
thorax -4.93876 -0.698542 -0.503059
lowerneck -8.11805 0.878183 -4.43553
upperneck 0.521353 1.53637 -0.865693
head 1.5091 0.692268 0.536543
rclavicle -2.41523e-014 1.51076e-014
rhumerus -53.2253 10.0919 -97.1019
rradius 83.5897
rwrist -5.06496
rhand -22.6078 23.1073
rfingers 7.12502
rthumb 3.82182 -6.83818
lclavicle -2.41523e-014 1.51076e-014
lhumerus -68.4921 -4.34056 98.5606
lradius 101.107
lwrist 11.4477
lhand -6.70639 -7.91289
lfingers 7.12502
lthumb 19.1532 21.164
rfemur -1.10285 0.380728 25.8581
rtibia 40.6358
rfoot -28.0476 -1.90413
rtoes 0.110081
lfemur -21.3931 1.30795 -19.4715
ltibia 95.5307
lfoot 0.852727 -2.41763
ltoes -2.62984
177
root -23.4853 17.2316 -22.6491 -182.434 -46.7138 176.351
lowerback 14.5001 -0.55835 0.786732
upperback 2.97726 -0.854597 -0.209241
thorax -4.99009 -0.526929 -0.498676
lowerneck -8.19583 0.741299 -4.45079
upperneck 0.919615 1.37532 -0.802736
head 1.65552 0.608987 0.557113
rclavicle -2.88238e-014 2.82274e-014
rhumerus -53.1873 10.4231 -97.9025
rradius 84.8091
rwrist -4.94003
rhand -22.2736 23.2707
rfingers 7.12502
rthumb 4.14461 -6.66873
lclavicle -2.88238e-014 2.82274e-014
lhumerus -69.1464 -4.3143 98.5594
lradius 101.728
lwrist 12.3813
lhand -5.82545 -8.58122
lfingers 7.12502
lthumb 20.0001 20.4095
rfemur 0.629097 1.06366 25.6397
rtibia 39.1562
rfoot -26.7563 -2.35501
rtoes -0.0252795
lfemur -23.0444 1.37516 -20.2051
ltibia 94.3229
lfoot 0.194327 -2.43094
ltoes -4.04637
178
root -23.721 17.342 -22.9017 -181.898 -46.5608 175.879
lowerback 14.3185 -0.259408 0.392078
upperback 2.80482 -0.51334 -0.364975
thorax -5.0663 -0.348689 -0.503315
lowerneck -8.25527 0.610461 -4.52253
upperneck 1.35582 1.2261 -0.692235
head 1.81156 0.532209 0.602683
rclavicle 3.94588e-014 -1.86858e-014
rhumerus -53.31 10.9111 -98.7285
rradius 86.0383
rwrist -4.76519
rhand -21.9052 23.22
rfingers 7.12502
rthumb 4.50031 -6.71215
lclavicle 3.94588e-014 -1.86858e-014
lhumerus -69.7835 -4.2771 98.5631
lradius 102.388
lwrist 13.3849
lhand -4.97216 -9.18955
lfingers 7.12502
lthumb 20.8202 19.7134
rfemur 2.3336 1.74855 25.478
rtibia 37.645
rfoot -25.0816 -2.9331
rtoes -0.317089
lfemur -24.46 1.47728 -20.8827
ltibia 92.7301
lfoot -0.38471 -2.53223
ltoes -4.77429
179
root -23.9618 17.4604 -23.1578 -181.353 -46.3376 175.428
lowerback 14.0481 0.0483082 0.00191222
upperback 2.63771 -0.159294 -0.523231
thorax -5.09015 -0.163914 -0.514746
lowerneck -8.28748 0.490459 -4.61854
upperneck 1.76973 1.08978 -0.571119
head 1.95622 0.462199 0.655795
rclavicle 4.32357e-015 -1.59028e-015
rhumerus -53.5778 11.6302 -99.5879
rradius 87.2867
rwrist -4.57987
rhand -21.6431 23.0576
rfingers 7.12502
rthumb 4.75336 -6.86904
lclavicle 4.32357e-015 -1.59028e-015
lhumerus -70.4451 -4.2053 98.5448
lradius 103.038
lwrist 14.4055
lhand -4.2191 -9.74323
lfingers 7.12502
lthumb 21.5436 19.0786
rfemur 3.92449 2.4236 25.3024
rtibia 36.1801
rfoot -23.0429 -3.56552
rtoes -0.543591
lfemur -25.6523 1.57457 -21.5791
ltibia 90.7555
lfoot -0.860482 -2.55786
ltoes -4.63946
180
root -24.2038 17.5854 -23.4124 -180.789 -46.0852 174.944
lowerback 13.7623 0.355751 -0.392656
upperback 2.47298 0.19244 -0.711588
thorax -5.10493 0.0193209 -0.553008
lowerneck -8.26743 0.374212 -4.72897
upperneck 2.14578 0.953495 -0.409939
head 2.07991 0.39407 0.723518
rclavicle -5.41688e-015 2.78299e-015
rhumerus -53.9634 12.4649 -100.477
rradius 88.5335
rwrist -4.34702
rhand -21.4845 22.7831
rfingers 7.12502
rthumb 4.9065 -7.14012
lclavicle -5.41688e-015 2.78299e-015
lhumerus -71.147 -4.13493 98.4831
lradius 103.687
lwrist 15.2696
lhand -3.53361 -10.1548
lfingers 7.12502
lthumb 22.2018 18.5902
rfemur 5.35514 2.91733 24.9952
rtibia 34.8258
rfoot -20.5792 -4.16237
rtoes -0.774602
lfemur -26.6135 1.58604 -22.3418
ltibia 88.4212
lfoot -1.26913 -2.44646
ltoes -3.94796
181
root -24.4452 17.7164 -23.6654 -180.223 -45.8079 174.483
lowerback 13.478 0.648779 -0.777999
upperback 2.27919 0.527996 -0.905164
thorax -5.15269 0.19487 -0.597493
lowerneck -8.21076 0.277595 -4.81005
upperneck 2.53028 0.838131 -0.272247
head 2.20017 0.335793 0.779393
rclavicle 2.55935e-015 1.98785e-014
rhumerus -54.4981 13.4345 -101.433
rradius 89.7899
rwrist -4.08168
rhand -21.3957 22.6015
rfingers 7.12502
rthumb 4.99228 -7.31966
lclavicle 2.55935e-015 1.98785e-014
lhumerus -71.9107 -4.02908 98.3691
lradius 104.35
lwrist 16.0229
lhand -2.86018 -10.3944
lfingers 7.12502
lthumb 22.8481 18.2722
rfemur 6.59987 3.25736 24.6067
rtibia 33.5596
rfoot -17.6565 -4.7383
rtoes -1.13884
lfemur -27.411 1.55951 -23.093
ltibia 85.776
lfoot -1.60502 -2.20767
ltoes -3.41629
182
root -24.6888 17.8468 -23.9205 -179.634 -45.5067 174.028
lowerback 13.1235 0.944709 -1.17465
upperback 2.09544 0.868088 -1.09452
thorax -5.15282 0.372691 -0.62923
lowerneck -8.14497 0.178885 -4.91347
upperneck 2.88155 0.71851 -0.123041
head 2.3086 0.2757 0.842475
rclavicle -3.87879e-014 1.78906e-015
rhumerus -55.1103 14.4669 -102.371
rradius 91.0486
rwrist -3.76882
rhand -21.3093 22.6149
rfingers 7.12502
rthumb 5.07566 -7.30433
lclavicle -3.87879e-014 1.78906e-015
lhumerus -72.6642 -3.93414 98.2426
lradius 105.022
lwrist 16.5256
lhand -2.2898 -10.4338
lfingers 7.12502
lthumb 23.3954 18.1641
rfemur 7.72764 3.62216 24.1857
rtibia 32.3335
rfoot -14.3778 -5.40697
rtoes -1.22679
lfemur -28.0414 1.4999 -23.8178
ltibia 82.8581
lfoot -1.96213 -1.99518
ltoes -3.26538
